<svg xmlns="http://www.w3.org/2000/svg" width="1200" height="246" viewBox="0 0 1200 246">
<rect width="100%" height="100%" fill="#14141a"/>
<text x="12" y="22" fill="#d8d8e0" font-family="monospace" font-size="14">bass-drum-harsh-wave  -  0.300s @ 48000 Hz, 1 channel</text>
<rect x="12" y="34" width="1176" height="200" fill="#1b1b24"/>
<line x1="12" y1="134.0" x2="1188" y2="134.0" stroke="#34343f" stroke-width="1"/>
<path stroke="#6cc5f0" stroke-width="1" fill="none" d="M12 128.4L12 135.7M13 135.3L13 142.6M14 134.1L14 142.0M15 128.6L15 134.2M16 125.4L16 133.3M17 125.2L17 134.0M18 125.3L18 131.8M19 119.1L19 130.1M20 117.9L20 127.9M21 117.5L21 126.7M22 121.7L22 132.2M23 128.7L23 134.6M24 123.2L24 133.7M25 125.2L25 133.2M26 126.0L26 133.0M27 126.5L27 133.3M28 126.8L28 143.1M29 138.2L29 143.2M30 140.7L30 146.8M31 140.6L31 147.6M32 147.3L32 155.5M33 154.1L33 158.9M34 154.1L34 160.9M35 154.5L35 161.9M36 154.5L36 162.6M37 150.8L37 156.2M38 151.9L38 158.2M39 151.0L39 157.0M40 142.8L40 156.9M41 133.9L41 142.3M42 132.0L42 138.9M43 132.4L43 135.6M44 126.6L44 134.8M45 117.3L45 126.0M46 109.8L46 118.6M47 113.4L47 115.4M48 99.7L48 113.9M49 99.4L49 106.9M50 94.7L50 99.8M51 92.5L51 97.9M52 93.0L52 99.0M53 96.7L53 102.8M54 100.8L54 105.3M55 103.0L55 115.6M56 112.9L56 120.7M57 118.0L57 125.3M58 123.7L58 131.4M59 130.8L59 135.0M60 135.6L60 147.3M61 148.9L61 158.5M62 156.4L62 163.1M63 163.8L63 170.7M64 168.1L64 175.4M65 174.7L65 181.0M66 179.4L66 184.0M67 180.6L67 183.5M68 177.7L68 182.1M69 178.7L69 181.2M70 169.1L70 179.6M71 159.4L71 168.6M72 153.0L72 159.9M73 143.8L73 153.8M74 131.4L74 142.7M75 122.2L75 131.0M76 107.7L76 122.6M77 101.7L77 108.3M78 93.5L78 101.7M79 87.1L79 92.3M80 81.2L80 87.3M81 81.2L81 81.7M82 81.2L82 81.7M83 81.2L83 81.7M84 81.2L84 81.7M85 81.2L85 82.0M86 81.2L86 89.2M87 88.9L87 102.0M88 102.0L88 114.3M89 115.5L89 129.1M90 130.0L90 142.1M91 142.5L91 157.7M92 158.8L92 167.6M93 168.2L93 182.5M94 183.4L94 187.3M95 186.8L95 187.3M96 186.8L96 187.3M97 186.8L97 187.3M98 186.8L98 187.3M99 186.8L99 187.3M100 186.8L100 187.3M101 186.8L101 187.3M102 181.2L102 187.3M103 170.5L103 181.4M104 155.2L104 170.1M105 135.4L105 154.8M106 118.2L106 134.1M107 101.8L107 117.7M108 86.6L108 100.9M109 81.2L109 86.0M110 81.2L110 81.7M111 81.2L111 81.7M112 81.2L112 81.7M113 81.2L113 81.7M114 81.2L114 81.7M115 81.2L115 81.7M116 81.2L116 81.7M117 81.2L117 81.7M118 81.2L118 88.1M119 89.4L119 102.8M120 104.0L120 119.7M121 121.0L121 135.0M122 135.4L122 154.0M123 155.1L123 171.9M124 172.6L124 185.6M125 186.5L125 187.3M126 186.8L126 187.3M127 186.8L127 187.3M128 186.8L128 187.3M129 186.8L129 187.3M130 186.8L130 187.3M131 186.8L131 187.3M132 186.8L132 187.3M133 186.8L133 187.3M134 174.9L134 187.3M135 159.1L135 174.5M136 143.7L136 158.8M137 126.9L137 142.9M138 109.6L138 126.4M139 97.1L139 108.7M140 83.9L140 96.6M141 81.2L141 83.1M142 81.2L142 81.7M143 81.2L143 81.7M144 81.2L144 81.7M145 81.2L145 81.7M146 81.2L146 81.7M147 81.2L147 81.7M148 81.2L148 81.7M149 81.2L149 84.8M150 85.2L150 98.9M151 99.4L151 115.7M152 116.1L152 130.3M153 131.4L153 147.0M154 148.0L154 161.1M155 161.6L155 174.8M156 175.2L156 187.2M157 186.8L157 187.3M158 186.8L158 187.3M159 186.8L159 187.3M160 186.8L160 187.3M161 186.8L161 187.3M162 186.8L162 187.3M163 186.8L163 187.3M164 186.8L164 187.3M165 177.5L165 187.3M166 163.8L166 176.7M167 148.4L167 163.0M168 133.0L168 147.9M169 117.0L169 132.4M170 103.9L170 116.5M171 89.8L171 103.0M172 81.2L172 89.5M173 81.2L173 81.7M174 81.2L174 81.7M175 81.2L175 81.7M176 81.2L176 81.7M177 81.2L177 81.7M178 81.2L178 81.7M179 81.2L179 81.7M180 81.2L180 84.2M181 84.7L181 97.4M182 98.2L182 110.0M183 110.5L183 125.4M184 126.2L184 139.5M185 140.1L185 155.2M186 155.9L186 168.6M187 169.3L187 180.5M188 180.8L188 187.3M189 186.8L189 187.3M190 186.8L190 187.3M191 186.8L191 187.3M192 186.8L192 187.3M193 186.8L193 187.3M194 186.8L194 187.3M195 186.2L195 187.3M196 177.0L196 185.8M197 164.7L197 176.6M198 151.8L198 164.4M199 137.5L199 151.1M200 123.7L200 136.6M201 109.7L201 123.2M202 98.1L202 109.2M203 87.0L203 97.6M204 81.2L204 86.7M205 81.2L205 81.7M206 81.2L206 81.7M207 81.2L207 81.7M208 81.2L208 81.7M209 81.2L209 81.7M210 81.2L210 81.7M211 81.2L211 85.9M212 86.1L212 97.3M213 97.9L213 109.2M214 109.9L214 121.1M215 121.8L215 134.7M216 135.4L216 148.1M217 148.5L217 160.5M218 161.0L218 172.5M219 172.9L219 182.0M220 182.1L220 187.3M221 186.8L221 187.3M222 186.8L222 187.3M223 186.8L223 187.3M224 186.8L224 187.3M225 186.8L225 187.3M226 186.0L226 187.3M227 177.5L227 185.9M228 166.5L228 177.4M229 154.6L229 165.9M230 142.3L230 154.0M231 129.6L231 141.9M232 115.9L232 129.2M233 105.3L233 115.5M234 94.9L234 105.0M235 85.1L235 94.6M236 81.2L236 85.1M237 81.2L237 81.7M238 81.2L238 81.7M239 81.2L239 81.7M240 81.2L240 81.7M241 81.2L241 81.7M242 81.2L242 87.1M243 87.4L243 96.2M244 96.3L244 106.8M245 107.1L245 119.0M246 119.5L246 130.8M247 131.3L247 142.1M248 142.7L248 154.6M249 155.2L249 165.1M250 165.5L250 174.5M251 174.7L251 183.3M252 183.2L252 187.3M253 186.8L253 187.3M254 186.8L254 187.3M255 186.8L255 187.3M256 186.8L256 187.3M257 183.8L257 187.3M258 176.0L258 183.7M259 167.4L259 175.9M260 157.4L260 167.2M261 144.9L261 157.0M262 133.7L262 144.5M263 122.8L263 133.4M264 112.1L264 122.4M265 101.2L265 111.6M266 92.9L266 101.0M267 86.2L267 92.7M268 81.2L268 86.3M269 81.2L269 81.7M270 81.2L270 81.7M271 81.2L271 81.7M272 81.2L272 82.7M273 82.6L273 88.9M274 89.0L274 96.8M275 97.0L275 105.6M276 105.8L276 115.5M277 115.8L277 126.9M278 127.3L278 138.1M279 138.6L279 148.8M280 149.3L280 159.0M281 159.4L281 168.8M282 169.1L282 176.2M283 176.3L283 182.2M284 182.1L284 186.1M285 185.8L285 187.3M286 186.8L286 187.3M287 185.6L287 187.3M288 181.2L288 185.7M289 174.6L289 181.2M290 167.2L290 174.5M291 158.2L291 166.9M292 148.5L292 157.9M293 137.3L293 148.1M294 127.0L294 136.9M295 116.9L295 126.6M296 108.0L296 116.5M297 98.9L297 107.7M298 92.1L298 98.7M299 87.6L299 92.1M300 84.3L300 87.8M301 82.8L301 84.6M302 82.8L302 84.5M303 84.0L303 86.8M304 86.5L304 91.2M305 91.2L305 98.2M306 98.3L306 106.0M307 106.2L307 114.5M308 114.7L308 124.0M309 124.2L309 133.6M310 133.9L310 144.1M311 144.5L311 153.6M312 153.8L312 162.0M313 162.2L313 169.3M314 169.4L314 175.4M315 175.3L315 179.7M316 179.5L316 182.0M317 181.6L317 182.7M318 180.8L318 182.6M319 177.4L319 181.1M320 172.7L320 177.5M321 166.7L321 172.7M322 158.2L322 166.5M323 149.7L323 158.0M324 140.9L324 149.5M325 131.6L325 140.7M326 122.1L326 131.4M327 113.3L327 121.8M328 105.8L328 113.2M329 99.4L329 105.6M330 94.1L330 99.4M331 90.6L331 94.3M332 88.7L332 90.9M333 88.5L333 89.4M334 89.0L334 91.2M335 90.9L335 94.7M336 94.5L336 100.1M337 100.1L337 106.2M338 106.3L338 114.2M339 114.3L339 122.2M340 122.5L340 130.9M341 131.2L341 139.6M342 139.8L342 148.6M343 148.8L343 156.3M344 156.4L344 163.0M345 163.0L345 168.8M346 168.7L346 173.6M347 173.3L347 176.6M348 176.2L348 177.5M349 176.7L349 177.6M350 174.5L350 177.0M351 170.6L351 174.8M352 165.6L352 170.8M353 159.2L353 165.6M354 151.1L354 159.1M355 143.3L355 151.0M356 134.6L356 143.1M357 126.3L357 134.4M358 118.0L358 126.1M359 109.9L359 117.9M360 103.4L360 109.8M361 98.1L361 103.4M362 94.0L362 98.2M363 91.6L363 94.3M364 90.9L364 92.0M365 90.9L365 92.3M366 91.9L366 94.8M367 94.6L367 99.2M368 99.1L368 104.8M369 104.9L369 111.7M370 111.7L370 119.1M371 119.3L371 128.1M372 128.3L372 136.5M373 136.7L373 144.9M374 145.1L374 152.9M375 153.0L375 160.8M376 160.9L376 167.1M377 167.1L377 172.0M378 171.9L378 175.4M379 175.1L379 177.3M380 176.9L380 177.7M381 175.6L381 177.5M382 172.4L382 175.9M383 167.4L383 172.6M384 161.3L384 167.4M385 154.3L385 161.2M386 146.6L386 154.2M387 137.6L387 146.4M388 129.1L388 137.4M389 120.9L389 128.9M390 112.9L390 120.7M391 105.4L391 112.8M392 99.8L392 105.4M393 95.3L393 99.9M394 92.3L394 95.4M395 90.9L395 92.6M396 90.9L396 91.7M397 91.4L397 93.8M398 93.6L398 97.4M399 97.3L399 103.0M400 103.0L400 109.3M401 109.4L401 116.7M402 116.8L402 124.7M403 124.9L403 133.9M404 134.1L404 142.3M405 142.4L405 150.4M406 150.5L406 157.9M407 158.0L407 164.5M408 164.5L408 170.4M409 170.3L409 174.4M410 174.2L410 176.8M411 176.5L411 177.8M412 176.3L412 177.8M413 173.7L413 176.7M414 169.5L414 173.9M415 164.0L415 169.6M416 156.8L416 164.0M417 149.2L417 156.7M418 141.1L418 149.0M419 132.6L419 140.9M420 123.5L420 132.4M421 115.6L421 123.3M422 108.3L422 115.5M423 102.0L423 108.2M424 96.6L424 102.0M425 93.0L425 96.8M426 91.1L426 93.3M427 90.8L427 91.5M428 90.9L428 92.9M429 92.7L429 96.0M430 95.9L430 100.6M431 100.6L431 106.6M432 106.6L432 114.2M433 114.3L433 122.0M434 122.2L434 130.2M435 130.4L435 138.7M436 138.9L436 147.7M437 147.9L437 155.4M438 155.5L438 162.4M439 162.4L439 168.3M440 168.2L440 173.2M441 173.0L441 176.2M442 175.9L442 177.6M443 176.8L443 177.7M444 174.7L444 177.2M445 171.1L445 174.9M446 166.0L446 171.2M447 159.8L447 166.0M448 151.8L448 159.7M449 143.7L449 151.7M450 135.3L450 143.6M451 126.9L451 135.1M452 118.1L452 126.7M453 110.6L453 117.9M454 104.0L454 110.5M455 98.5L455 104.0M456 94.3L456 98.6M457 91.6L457 94.6M458 90.8L458 92.0M459 90.8L459 92.1M460 91.7L460 94.5M461 94.3L461 99.0M462 98.9L462 104.4M463 104.4L463 111.1M464 111.2L464 118.6M465 118.8L465 127.4M466 127.7L466 136.0M467 136.2L467 144.3M468 144.5L468 152.3M469 152.4L469 160.2M470 160.3L470 166.5M471 166.5L471 171.6M472 171.4L472 175.2M473 174.9L473 177.4M474 176.9L474 177.7M475 175.8L475 177.6M476 172.8L476 176.1M477 167.8L477 173.0M478 162.0L478 167.9M479 155.0L479 161.9M480 147.2L480 154.9M481 138.2L481 147.1M482 129.8L482 138.0M483 121.5L483 129.6M484 113.6L484 121.3M485 106.0L485 113.5M486 100.1L486 106.0M487 95.5L487 100.2M488 92.4L488 95.7M489 90.9L489 92.7M490 90.8L490 91.7M491 91.3L491 93.6M492 93.3L492 97.1M493 96.9L493 102.5M494 102.5L494 108.8M495 108.8L495 116.0M496 116.1L496 124.0M497 124.2L497 133.1M498 133.3L498 141.5M499 141.7L499 149.7M500 149.9L500 157.3M501 157.4L501 164.5M502 164.5L502 167.4M503 167.1L503 169.6M504 169.3L504 171.7M505 171.3L505 173.4M506 173.1L506 175.0M507 174.6L507 176.2M508 175.7L508 177.0M509 176.5L509 177.5M510 177.0L510 177.7M511 177.1L511 177.7M512 176.6L512 177.5M513 175.8L513 177.0M514 174.5L514 176.2M515 173.1L515 174.9M516 171.4L516 173.5M517 169.4L517 171.7M518 166.9L518 169.7M519 164.4L519 167.2M520 161.6L520 164.6M521 158.6L521 161.9M522 155.2L522 158.9M523 151.9L523 155.4M524 148.4L524 152.1M525 144.8L525 148.6M526 140.9L526 145.0M527 137.2L527 141.1M528 133.5L528 137.4M529 129.7L529 133.7M530 125.8L530 129.9M531 122.1L531 126.0M532 118.6L532 122.3M533 115.1L533 118.8M534 111.6L534 115.4M535 108.5L535 111.8M536 105.6L536 108.7M537 102.9L537 105.9M538 100.2L538 103.2M539 98.0L539 100.5M540 96.1L540 98.3M541 94.4L541 96.4M542 93.0L542 94.8M543 92.0L543 93.4M544 91.2L544 92.4M545 90.9L545 91.7M546 90.8L546 91.4M547 90.8L547 91.6M548 91.1L548 92.2M549 91.8L549 93.1M550 92.7L550 94.5M551 94.1L551 96.0M552 95.7L552 97.9M553 97.5L553 100.0M554 99.7L554 102.4M555 102.1L555 105.2M556 104.9L556 108.0M557 107.8L557 111.0M558 110.8L558 114.3M559 114.0L559 118.0M560 117.7L560 121.4M561 121.2L561 125.0M562 124.8L562 128.7M563 128.5L563 132.7M564 132.6L564 136.5M565 136.3L565 140.2M566 140.0L566 143.9M567 143.7L567 147.8M568 147.6L568 151.3M569 151.1L569 154.6M570 154.4L570 157.9M571 157.6L571 161.2M572 160.9L572 164.0M573 163.7L573 166.6M574 166.3L574 169.0M575 168.7L575 171.3M576 170.9L576 173.1M577 172.7L577 174.6M578 174.2L578 175.9M579 175.4L579 176.8M580 176.4L580 177.4M581 176.9L581 177.7M582 177.1L582 177.7M583 176.7L583 177.6M584 176.0L584 177.1M585 174.9L585 176.4M586 173.6L586 175.3M587 171.8L587 174.0M588 169.9L588 172.1M589 167.6L589 170.2M590 165.2L590 168.0M591 162.2L591 165.5M592 159.3L592 162.5M593 156.2L593 159.6M594 152.9L594 156.5M595 149.2L595 153.2M596 145.7L596 149.4M597 142.0L597 145.9M598 138.4L598 142.2M599 134.3L599 138.5M600 130.6L600 134.5M601 126.9L601 130.8M602 123.2L602 127.1M603 119.7L603 123.4M604 115.9L604 119.9M605 112.6L605 116.1M606 109.4L606 112.8M607 106.5L607 109.7M608 103.5L608 106.7M609 101.0L609 103.8M610 98.7L610 101.3M611 96.7L611 99.0M612 94.8L612 97.0M613 93.4L613 95.2M614 92.3L614 93.8M615 91.4L615 92.7M616 90.9L616 91.9M617 90.8L617 91.4M618 90.8L618 91.5M619 91.0L619 92.0M620 91.6L620 92.9M621 92.5L621 94.1M622 93.7L622 95.5M623 95.1L623 97.3M624 96.9L624 99.5M625 99.1L625 101.8M626 101.5L626 104.3M627 104.1L627 107.1M628 106.9L628 110.4M629 110.1L629 113.5M630 113.3L630 116.9M631 116.7L631 120.3M632 120.1L632 124.2M633 124.0L633 127.9M634 127.7L634 131.6M635 131.4L635 135.3M636 135.1L636 139.4M637 139.2L637 143.0M638 142.8L638 146.7M639 146.5L639 150.2M640 150.0L640 153.9M641 153.7L641 157.1M642 156.9L642 160.2M643 160.0L643 163.1M644 162.9L644 166.0M645 165.7L645 168.5M646 168.2L646 170.6M647 170.3L647 172.5M648 172.2L648 174.3M649 173.9L649 175.6M650 175.2L650 176.6M651 176.2L651 177.3M652 176.8L652 177.6M653 177.2L653 177.7M654 176.9L654 177.7M655 176.2L655 177.3M656 175.3L656 176.7M657 173.9L657 175.7M658 172.4L658 174.3M659 170.5L659 172.7M660 168.4L660 170.8M661 165.8L661 168.7M662 163.1L662 166.1M663 160.3L663 163.4M664 157.2L664 160.5M665 153.7L665 157.4M666 150.3L666 153.9M667 146.8L667 150.5M668 143.2L668 147.0M669 139.2L669 143.4M670 135.5L670 139.4M671 131.7L671 135.7M672 128.0L672 131.9M673 124.1L673 128.2M674 120.5L674 124.3M675 117.0L675 120.7M676 113.6L676 117.2M677 110.1L677 113.8M678 107.1L678 110.4M679 104.3L679 107.4M680 101.7L680 104.6M681 99.2L681 102.0M682 97.1L682 99.5M683 95.3L683 97.4M684 93.8L684 95.7M685 92.5L685 94.2M686 91.6L686 92.9M687 91.0L687 92.1M688 90.8L688 91.5M689 90.8L689 91.4M690 90.9L690 91.8M691 91.4L691 92.6M692 92.2L692 93.7M693 93.3L693 95.1M694 94.8L694 96.8M695 96.5L695 98.8M696 98.5L696 101.0M697 100.7L697 103.7M698 103.5L698 106.5M699 106.2L699 109.4M700 109.2L700 112.5M701 112.3L701 115.8M702 115.6L702 119.6M703 119.3L703 123.1M704 122.9L704 126.7M705 126.5L705 130.4M706 130.2L706 134.5M707 134.3L707 138.2M708 138.0L708 141.9M709 141.7L709 145.5M710 145.3L710 149.4M711 149.2L711 152.8M712 152.6L712 156.2M713 155.9L713 159.3M714 159.0L714 162.5M715 162.2L715 165.2M716 164.9L716 167.7M717 167.4L717 170.0M718 169.7L718 172.1M719 171.8L719 173.8M720 173.5L720 175.2M721 174.8L721 176.3M722 175.9L722 177.1M723 176.7L723 177.6M724 177.1L724 177.7M725 177.0L725 177.7M726 176.4L726 177.5M727 175.5L727 176.8M728 174.4L728 175.9M729 172.9L729 174.7M730 170.9L730 173.2M731 168.9L731 171.3M732 166.5L732 169.2M733 164.0L733 166.8M734 160.9L734 164.2M735 157.9L735 161.2M736 154.7L736 158.1M737 151.4L737 154.9M738 147.6L738 151.6M739 144.0L739 147.8M740 140.3L740 144.2M741 136.6L741 140.5M742 132.6L742 136.8M743 128.9L743 132.8M744 125.2L744 129.1M745 121.6L745 125.4M746 117.8L746 121.8M747 114.4L747 118.0M748 111.1L748 114.6M749 108.0L749 111.4M750 105.2L750 108.3M751 102.3L751 105.4M752 99.9L752 102.6M753 97.7L753 100.2M754 95.8L754 98.0M755 94.1L755 96.2M756 92.8L756 94.5M757 91.8L757 93.2M758 91.2L758 92.3M759 90.8L759 91.6M760 90.8L760 91.3M761 90.9L761 91.7M762 91.2L762 92.3M763 91.9L763 93.4M764 93.0L764 94.7M765 94.3L765 96.3M766 95.9L766 98.2M767 97.8L767 100.5M768 100.2L768 102.9M769 102.6L769 105.6M770 105.3L770 108.5M771 108.2L771 111.8M772 111.6L772 115.1M773 114.8L773 118.5M774 118.3L774 122.0M775 121.8L775 125.9M776 125.7L776 129.6M777 129.4L777 133.3M778 133.1L778 137.0M779 136.9L779 141.1M780 140.9L780 144.7M781 144.5L781 148.3M782 148.1L782 151.8M783 151.6L783 155.4M784 155.2L784 158.6M785 158.4L785 161.6M786 161.3L786 164.4M787 164.1L787 167.2M788 166.9L788 169.5M789 169.2L789 171.6M790 171.2L790 173.3M791 173.0L791 174.9M792 174.5L792 176.1M793 175.7L793 176.9M794 176.5L794 177.5M795 177.0L795 177.7M796 176.9L796 177.7M797 176.2L797 177.3M798 175.2L798 176.6M799 174.0L799 175.6M800 172.3L800 174.3M801 170.4L801 172.6M802 168.3L802 170.7M803 166.0L803 168.6M804 163.2L804 166.2M805 160.4L805 163.5M806 157.5L806 160.7M807 154.4L807 157.7M808 150.9L808 154.6M809 147.6L809 151.2M810 144.3L810 147.9M811 140.9L811 144.5M812 137.2L812 141.1M813 133.8L813 137.4M814 130.4L814 134.0M815 127.1L815 130.6M816 123.6L816 127.3M817 120.5L817 123.9M818 117.6L818 120.8M819 114.8L819 117.8M820 111.9L820 115.0M821 109.5L821 112.2M822 107.3L822 109.8M823 105.3L823 107.6M824 103.5L824 105.7M825 102.0L825 103.8M826 100.8L826 102.4M827 99.8L827 101.2M828 99.1L828 100.2M829 98.7L829 99.5M830 98.6L830 99.2M831 98.6L831 99.2M832 98.7L832 99.7M833 99.2L833 100.3M834 99.9L834 101.3M835 100.9L835 102.4M836 102.0L836 104.0M837 103.6L837 105.6M838 105.2L838 107.4M839 107.1L839 109.4M840 109.1L840 111.7M841 111.4L841 114.1M842 113.8L842 116.5M843 116.2L843 119.0M844 118.7L844 121.9M845 121.6L845 124.6M846 124.3L846 127.3M847 127.0L847 130.0M848 129.8L848 132.8M849 132.5L849 135.7M850 135.5L850 138.4M851 138.1L851 141.0M852 140.7L852 143.5M853 143.2L853 146.1M854 145.8L854 148.4M855 148.1L855 150.6M856 150.2L856 152.6M857 152.2L857 154.5M858 154.2L858 156.2M859 155.8L859 157.6M860 157.2L860 158.9M861 158.5L861 160.0M862 159.6L862 160.9M863 160.4L863 161.5M864 161.0L864 161.9M865 161.4L865 162.1M866 161.6L866 162.1M867 161.3L867 162.0M868 160.9L868 161.8M869 160.2L869 161.3M870 159.3L870 160.6M871 158.3L871 159.8M872 157.2L872 158.7M873 155.7L873 157.5M874 154.2L874 156.1M875 152.6L875 154.6M876 150.9L876 152.9M877 148.9L877 151.2M878 147.0L878 149.2M879 145.0L879 147.3M880 142.9L880 145.3M881 140.7L881 143.3M882 138.6L882 141.0M883 136.6L883 139.0M884 134.5L884 136.9M885 132.3L885 134.8M886 130.3L886 132.6M887 128.4L887 130.7M888 126.6L888 128.8M889 124.7L889 126.9M890 123.1L890 125.1M891 121.6L891 123.5M892 120.2L892 122.0M893 118.8L893 120.6M894 117.7L894 119.2M895 116.8L895 118.1M896 115.9L896 117.2M897 115.3L897 116.4M898 114.7L898 115.7M899 114.4L899 115.2M900 114.2L900 114.9M901 114.2L901 114.7M902 114.2L902 114.9M903 114.4L903 115.1M904 114.7L904 115.6M905 115.1L905 116.1M906 115.7L906 116.9M907 116.5L907 117.7M908 117.3L908 118.6M909 118.2L909 119.7M910 119.3L910 120.9M911 120.5L911 122.1M912 121.7L912 123.4M913 123.0L913 124.7M914 124.3L914 126.2M915 125.8L915 127.6M916 127.2L916 129.0M917 128.6L917 130.4M918 130.0L918 131.9M919 131.5L919 133.3M920 132.9L920 134.7M921 134.3L921 136.0M922 135.6L922 137.4M923 137.0L923 138.6M924 138.2L924 139.8M925 139.4L925 140.9M926 140.4L926 141.9M927 141.5L927 142.8M928 142.4L928 143.7M929 143.2L929 144.4M930 143.9L930 145.0M931 144.6L931 145.5M932 145.1L932 145.9M933 145.5L933 146.2M934 145.8L934 146.4M935 146.0L935 146.5M936 146.0L936 146.5M937 145.9L937 146.5M938 145.7L938 146.4M939 145.4L939 146.2M940 145.0L940 145.9M941 144.6L941 145.5M942 144.0L942 145.0M943 143.4L943 144.5M944 142.8L944 143.9M945 142.1L945 143.3M946 141.4L946 142.6M947 140.6L947 141.8M948 139.8L948 141.0M949 139.0L949 140.3M950 138.2L950 139.5M951 137.4L951 138.7M952 136.6L952 137.8M953 135.8L953 137.0M954 135.1L954 136.3M955 134.3L955 135.5M956 133.6L956 134.8M957 133.0L957 134.1M958 132.4L958 133.5M959 131.8L959 132.9M960 131.3L960 132.3M961 130.9L961 131.8M962 130.5L962 131.4M963 130.2L963 131.0M964 129.9L964 130.7M965 129.7L965 130.4M966 129.6L966 130.2M967 129.5L967 130.1M968 129.5L968 130.0M969 129.5L969 130.0M970 129.5L970 130.0M971 129.5L971 130.2M972 129.7L972 130.3M973 129.8L973 130.5M974 130.0L974 130.7M975 130.2L975 131.0M976 130.5L976 131.3M977 130.8L977 131.5M978 131.1L978 131.8M979 131.4L979 132.2M980 131.7L980 132.5M981 132.0L981 132.8M982 132.3L982 133.0M983 132.6L983 133.3M984 132.9L984 133.6M985 133.1L985 133.8M986 133.3L986 134.0M987 133.5L987 134.2M988 133.7L988 134.3M989 133.8L989 134.4M990 133.9L990 134.5M991 134.0L991 134.5M992 134.0L992 134.5M993 134.0L993 134.5M994 134.0L994 134.5M995 134.0L995 134.5M996 134.0L996 134.5M997 134.0L997 134.5M998 134.0L998 134.5M999 134.0L999 134.5M1000 134.0L1000 134.5M1001 134.0L1001 134.5M1002 134.0L1002 134.5M1003 134.0L1003 134.5M1004 134.0L1004 134.5M1005 134.0L1005 134.5M1006 134.0L1006 134.5M1007 134.0L1007 134.5M1008 134.0L1008 134.5M1009 134.0L1009 134.5M1010 134.0L1010 134.5M1011 134.0L1011 134.5M1012 134.0L1012 134.5M1013 134.0L1013 134.5M1014 134.0L1014 134.5M1015 134.0L1015 134.5M1016 134.0L1016 134.5M1017 134.0L1017 134.5M1018 134.0L1018 134.5M1019 134.0L1019 134.5M1020 134.0L1020 134.5M1021 134.0L1021 134.5M1022 134.0L1022 134.5M1023 134.0L1023 134.5M1024 134.0L1024 134.5M1025 134.0L1025 134.5M1026 134.0L1026 134.5M1027 134.0L1027 134.5M1028 134.0L1028 134.5M1029 134.0L1029 134.5M1030 134.0L1030 134.5M1031 134.0L1031 134.5M1032 134.0L1032 134.5M1033 134.0L1033 134.5M1034 134.0L1034 134.5M1035 134.0L1035 134.5M1036 134.0L1036 134.5M1037 134.0L1037 134.5M1038 134.0L1038 134.5M1039 134.0L1039 134.5M1040 134.0L1040 134.5M1041 134.0L1041 134.5M1042 134.0L1042 134.5M1043 134.0L1043 134.5M1044 134.0L1044 134.5M1045 134.0L1045 134.5M1046 134.0L1046 134.5M1047 134.0L1047 134.5M1048 134.0L1048 134.5M1049 134.0L1049 134.5M1050 134.0L1050 134.5M1051 134.0L1051 134.5M1052 134.0L1052 134.5M1053 134.0L1053 134.5M1054 134.0L1054 134.5M1055 134.0L1055 134.5M1056 134.0L1056 134.5M1057 134.0L1057 134.5M1058 134.0L1058 134.5M1059 134.0L1059 134.5M1060 134.0L1060 134.5M1061 134.0L1061 134.5M1062 134.0L1062 134.5M1063 134.0L1063 134.5M1064 134.0L1064 134.5M1065 134.0L1065 134.5M1066 134.0L1066 134.5M1067 134.0L1067 134.5M1068 134.0L1068 134.5M1069 134.0L1069 134.5M1070 134.0L1070 134.5M1071 134.0L1071 134.5M1072 134.0L1072 134.5M1073 134.0L1073 134.5M1074 134.0L1074 134.5M1075 134.0L1075 134.5M1076 134.0L1076 134.5M1077 134.0L1077 134.5M1078 134.0L1078 134.5M1079 134.0L1079 134.5M1080 134.0L1080 134.5M1081 134.0L1081 134.5M1082 134.0L1082 134.5M1083 134.0L1083 134.5M1084 134.0L1084 134.5M1085 134.0L1085 134.5M1086 134.0L1086 134.5M1087 134.0L1087 134.5M1088 134.0L1088 134.5M1089 134.0L1089 134.5M1090 134.0L1090 134.5M1091 134.0L1091 134.5M1092 134.0L1092 134.5M1093 134.0L1093 134.5M1094 134.0L1094 134.5M1095 134.0L1095 134.5M1096 134.0L1096 134.5M1097 134.0L1097 134.5M1098 134.0L1098 134.5M1099 134.0L1099 134.5M1100 134.0L1100 134.5M1101 134.0L1101 134.5M1102 134.0L1102 134.5M1103 134.0L1103 134.5M1104 134.0L1104 134.5M1105 134.0L1105 134.5M1106 134.0L1106 134.5M1107 134.0L1107 134.5M1108 134.0L1108 134.5M1109 134.0L1109 134.5M1110 134.0L1110 134.5M1111 134.0L1111 134.5M1112 134.0L1112 134.5M1113 134.0L1113 134.5M1114 134.0L1114 134.5M1115 134.0L1115 134.5M1116 134.0L1116 134.5M1117 134.0L1117 134.5M1118 134.0L1118 134.5M1119 134.0L1119 134.5M1120 134.0L1120 134.5M1121 134.0L1121 134.5M1122 134.0L1122 134.5M1123 134.0L1123 134.5M1124 134.0L1124 134.5M1125 134.0L1125 134.5M1126 134.0L1126 134.5M1127 134.0L1127 134.5M1128 134.0L1128 134.5M1129 134.0L1129 134.5M1130 134.0L1130 134.5M1131 134.0L1131 134.5M1132 134.0L1132 134.5M1133 134.0L1133 134.5M1134 134.0L1134 134.5M1135 134.0L1135 134.5M1136 134.0L1136 134.5M1137 134.0L1137 134.5M1138 134.0L1138 134.5M1139 134.0L1139 134.5M1140 134.0L1140 134.5M1141 134.0L1141 134.5M1142 134.0L1142 134.5M1143 134.0L1143 134.5M1144 134.0L1144 134.5M1145 134.0L1145 134.5M1146 134.0L1146 134.5M1147 134.0L1147 134.5M1148 134.0L1148 134.5M1149 134.0L1149 134.5M1150 134.0L1150 134.5M1151 134.0L1151 134.5M1152 134.0L1152 134.5M1153 134.0L1153 134.5M1154 134.0L1154 134.5M1155 134.0L1155 134.5M1156 134.0L1156 134.5M1157 134.0L1157 134.5M1158 134.0L1158 134.5M1159 134.0L1159 134.5M1160 134.0L1160 134.5M1161 134.0L1161 134.5M1162 134.0L1162 134.5M1163 134.0L1163 134.5M1164 134.0L1164 134.5M1165 134.0L1165 134.5M1166 134.0L1166 134.5M1167 134.0L1167 134.5M1168 134.0L1168 134.5M1169 134.0L1169 134.5M1170 134.0L1170 134.5M1171 134.0L1171 134.5M1172 134.0L1172 134.5M1173 134.0L1173 134.5M1174 134.0L1174 134.5M1175 134.0L1175 134.5M1176 134.0L1176 134.5M1177 134.0L1177 134.5M1178 134.0L1178 134.5M1179 134.0L1179 134.5M1180 134.0L1180 134.5M1181 134.0L1181 134.5M1182 134.0L1182 134.5M1183 134.0L1183 134.5M1184 134.0L1184 134.5M1185 134.0L1185 134.5M1186 134.0L1186 134.5M1187 134.0L1187 134.5"/>
</svg>
